<svg width="189" height="38" viewBox="0 0 189 38" fill="none" xmlns="http://www.w3.org/2000/svg">
<path d="M35.6508 29V12.6364H40.8604V29H35.6508ZM38.2609 10.7294C37.5294 10.7294 36.9008 10.4879 36.3753 10.005C35.8497 9.51493 35.5869 8.92544 35.5869 8.23652C35.5869 7.5547 35.8497 6.97231 36.3753 6.48936C36.9008 5.9993 37.5294 5.75427 38.2609 5.75427C38.9996 5.75427 39.6281 5.9993 40.1466 6.48936C40.6721 6.97231 40.9349 7.5547 40.9349 8.23652C40.9349 8.92544 40.6721 9.51493 40.1466 10.005C39.6281 10.4879 38.9996 10.7294 38.2609 10.7294Z" fill="#505050"/>
<path d="M44.1762 29V7.18183H49.3857V15.4382H49.4923C49.7053 14.9411 50.0072 14.4617 50.3978 14C50.7955 13.5384 51.2998 13.1619 51.9106 12.8708C52.5285 12.5725 53.2671 12.4233 54.1265 12.4233C55.2629 12.4233 56.3247 12.7216 57.3119 13.3182C58.3062 13.9148 59.1088 14.8345 59.7195 16.0774C60.3303 17.3203 60.6357 18.9041 60.6357 20.8288C60.6357 22.6825 60.341 24.2344 59.7515 25.4844C59.1691 26.7344 58.3808 27.6719 57.3865 28.2969C56.3992 28.9219 55.3019 29.2344 54.0945 29.2344C53.2707 29.2344 52.5569 29.0994 51.9532 28.8296C51.3495 28.5597 50.8417 28.2046 50.4298 27.7642C50.0249 27.3239 49.7124 26.8516 49.4923 26.3473H49.3325V29H44.1762ZM49.2792 20.8182C49.2792 21.6989 49.3964 22.4659 49.6308 23.1193C49.8722 23.7727 50.2167 24.2806 50.6642 24.6428C51.1187 24.9979 51.662 25.1754 52.2941 25.1754C52.9333 25.1754 53.4767 24.9979 53.9241 24.6428C54.3715 24.2806 54.7089 23.7727 54.9362 23.1193C55.1705 22.4659 55.2877 21.6989 55.2877 20.8182C55.2877 19.9375 55.1705 19.174 54.9362 18.5277C54.7089 17.8814 54.3715 17.3807 53.9241 17.0256C53.4838 16.6705 52.9404 16.4929 52.2941 16.4929C51.6549 16.4929 51.1116 16.6669 50.6642 17.0149C50.2167 17.3629 49.8722 17.8601 49.6308 18.5064C49.3964 19.1527 49.2792 19.9233 49.2792 20.8182Z" fill="#505050"/>
<path d="M68.5752 7.18183V29H63.3657V7.18183H68.5752Z" fill="#505050"/>
<path d="M71.8911 29V12.6364H77.1006V29H71.8911ZM74.5012 10.7294C73.7696 10.7294 73.1411 10.4879 72.6155 10.005C72.0899 9.51493 71.8271 8.92544 71.8271 8.23652C71.8271 7.5547 72.0899 6.97231 72.6155 6.48936C73.1411 5.9993 73.7696 5.75427 74.5012 5.75427C75.2398 5.75427 75.8683 5.9993 76.3868 6.48936C76.9124 6.97231 77.1752 7.5547 77.1752 8.23652C77.1752 8.92544 76.9124 9.51493 76.3868 10.005C75.8683 10.4879 75.2398 10.7294 74.5012 10.7294Z" fill="#505050"/>
<path d="M88.055 29.309C86.3362 29.309 84.8589 28.9574 83.6231 28.2543C82.3944 27.544 81.4463 26.5568 80.7787 25.2926C80.1182 24.0213 79.7879 22.5476 79.7879 20.8715C79.7879 19.1882 80.1182 17.7145 80.7787 16.4503C81.4463 15.179 82.3944 14.1918 83.6231 13.4886C84.8589 12.7784 86.3362 12.4233 88.055 12.4233C89.7737 12.4233 91.2474 12.7784 92.4761 13.4886C93.7119 14.1918 94.6601 15.179 95.3206 16.4503C95.9882 17.7145 96.322 19.1882 96.322 20.8715C96.322 22.5476 95.9882 24.0213 95.3206 25.2926C94.6601 26.5568 93.7119 27.544 92.4761 28.2543C91.2474 28.9574 89.7737 29.309 88.055 29.309ZM88.0869 25.3779C88.7119 25.3779 89.241 25.1861 89.6743 24.8026C90.1075 24.419 90.4378 23.8864 90.665 23.2046C90.8994 22.5227 91.0166 21.7344 91.0166 20.8395C91.0166 19.9304 90.8994 19.135 90.665 18.4531C90.4378 17.7713 90.1075 17.2386 89.6743 16.8551C89.241 16.4716 88.7119 16.2798 88.0869 16.2798C87.4406 16.2798 86.8937 16.4716 86.4463 16.8551C86.0059 17.2386 85.6686 17.7713 85.4342 18.4531C85.2069 19.135 85.0933 19.9304 85.0933 20.8395C85.0933 21.7344 85.2069 22.5227 85.4342 23.2046C85.6686 23.8864 86.0059 24.419 86.4463 24.8026C86.8937 25.1861 87.4406 25.3779 88.0869 25.3779Z" fill="#505050"/>
<path d="M98 2C98 0.89543 98.8954 0 100 0H187C188.105 0 189 0.895431 189 2V36C189 37.1046 188.105 38 187 38H100C98.8954 38 98 37.1046 98 36V2Z" fill="#FF0E0E"/>
<path d="M109.509 7.18176V28.9999H104.896V7.18176H109.509Z" fill="white"/>
<path d="M119.249 29.2663C118.006 29.2663 116.881 28.9467 115.872 28.3075C114.871 27.6612 114.075 26.713 113.486 25.463C112.903 24.2059 112.612 22.6647 112.612 20.8394C112.612 18.9644 112.914 17.4055 113.518 16.1626C114.121 14.9126 114.924 13.9786 115.925 13.3607C116.934 12.7357 118.038 12.4232 119.239 12.4232C120.155 12.4232 120.918 12.5795 121.529 12.892C122.147 13.1974 122.644 13.5809 123.021 14.0426C123.404 14.4971 123.695 14.9445 123.894 15.3849H124.033V7.18176H128.56V28.9999H124.086V26.3792H123.894C123.681 26.8338 123.379 27.2847 122.989 27.7322C122.605 28.1725 122.104 28.5383 121.487 28.8295C120.876 29.1207 120.13 29.2663 119.249 29.2663ZM120.688 25.6548C121.419 25.6548 122.037 25.4559 122.541 25.0582C123.053 24.6534 123.443 24.0887 123.713 23.3643C123.99 22.6399 124.129 21.7911 124.129 20.8181C124.129 19.8451 123.994 18.9999 123.724 18.2826C123.454 17.5653 123.063 17.0113 122.552 16.6207C122.04 16.2301 121.419 16.0347 120.688 16.0347C119.942 16.0347 119.313 16.2372 118.802 16.642C118.29 17.0468 117.903 17.6079 117.641 18.3252C117.378 19.0426 117.246 19.8735 117.246 20.8181C117.246 21.7698 117.378 22.6115 117.641 23.343C117.911 24.0674 118.298 24.6356 118.802 25.0475C119.313 25.4524 119.942 25.6548 120.688 25.6548Z" fill="white"/>
<path d="M139.749 29.3195C138.066 29.3195 136.617 28.9786 135.403 28.2968C134.195 27.6079 133.265 26.6349 132.611 25.3778C131.958 24.1136 131.631 22.6186 131.631 20.8927C131.631 19.2095 131.958 17.7322 132.611 16.4609C133.265 15.1896 134.184 14.1988 135.371 13.4886C136.564 12.7784 137.963 12.4232 139.568 12.4232C140.648 12.4232 141.653 12.5972 142.583 12.9453C143.52 13.2862 144.337 13.8011 145.033 14.49C145.736 15.1789 146.283 16.0454 146.674 17.0894C147.064 18.1264 147.26 19.3409 147.26 20.7329V21.9793H133.442V19.1668H142.988C142.988 18.5134 142.846 17.9346 142.562 17.4303C142.278 16.9261 141.883 16.5319 141.379 16.2478C140.882 15.9566 140.303 15.811 139.643 15.811C138.954 15.811 138.343 15.9708 137.81 16.2904C137.285 16.6029 136.873 17.0255 136.574 17.5582C136.276 18.0838 136.123 18.6697 136.116 19.316V21.99C136.116 22.7997 136.265 23.4992 136.564 24.0887C136.869 24.6782 137.299 25.1328 137.853 25.4524C138.407 25.772 139.064 25.9318 139.824 25.9318C140.328 25.9318 140.79 25.8607 141.209 25.7187C141.628 25.5766 141.986 25.3636 142.285 25.0795C142.583 24.7954 142.81 24.4474 142.966 24.0355L147.164 24.3124C146.951 25.321 146.514 26.2017 145.854 26.9545C145.2 27.7002 144.355 28.2826 143.318 28.7017C142.288 29.1136 141.099 29.3195 139.749 29.3195Z" fill="white"/>
<path d="M154.888 29.3089C153.844 29.3089 152.913 29.1278 152.096 28.7656C151.28 28.3963 150.633 27.8529 150.157 27.1356C149.689 26.4112 149.454 25.5092 149.454 24.4296C149.454 23.5205 149.621 22.757 149.955 22.1391C150.289 21.5213 150.743 21.0241 151.319 20.6477C151.894 20.2713 152.547 19.9872 153.279 19.7954C154.018 19.6036 154.792 19.4687 155.601 19.3906C156.553 19.2911 157.32 19.1988 157.903 19.1136C158.485 19.0213 158.907 18.8863 159.17 18.7088C159.433 18.5312 159.564 18.2684 159.564 17.9204V17.8565C159.564 17.1818 159.351 16.6597 158.925 16.2904C158.506 15.9211 157.91 15.7365 157.135 15.7365C156.319 15.7365 155.669 15.9176 155.186 16.2798C154.703 16.6349 154.383 17.0823 154.227 17.6221L150.03 17.2812C150.243 16.2869 150.662 15.4275 151.287 14.7031C151.912 13.9715 152.718 13.4105 153.705 13.0198C154.699 12.6221 155.85 12.4232 157.157 12.4232C158.066 12.4232 158.936 12.5298 159.767 12.7428C160.605 12.9559 161.347 13.2862 161.993 13.7336C162.647 14.1811 163.162 14.7563 163.538 15.4595C163.915 16.1555 164.103 16.99 164.103 17.963V28.9999H159.799V26.7308H159.671C159.408 27.2421 159.057 27.6931 158.616 28.0838C158.176 28.4673 157.647 28.7691 157.029 28.9893C156.411 29.2024 155.697 29.3089 154.888 29.3089ZM156.187 26.1768C156.855 26.1768 157.444 26.0454 157.956 25.7826C158.467 25.5127 158.868 25.1505 159.16 24.696C159.451 24.2414 159.596 23.7265 159.596 23.1512V21.4147C159.454 21.507 159.259 21.5923 159.01 21.6704C158.769 21.7414 158.496 21.8089 158.19 21.8728C157.885 21.9296 157.579 21.9829 157.274 22.0326C156.969 22.0752 156.692 22.1143 156.443 22.1498C155.91 22.2279 155.445 22.3522 155.047 22.5227C154.65 22.6931 154.341 22.924 154.121 23.2151C153.9 23.4992 153.79 23.8543 153.79 24.2805C153.79 24.8984 154.014 25.3707 154.461 25.6974C154.916 26.017 155.491 26.1768 156.187 26.1768Z" fill="white"/>
<path d="M181.239 17.3025L177.084 17.5582C177.013 17.2031 176.86 16.8835 176.626 16.5994C176.392 16.3082 176.083 16.0774 175.699 15.9069C175.323 15.7293 174.872 15.6406 174.346 15.6406C173.643 15.6406 173.05 15.7897 172.567 16.088C172.084 16.3792 171.843 16.7698 171.843 17.2599C171.843 17.6505 171.999 17.9808 172.311 18.2507C172.624 18.5205 173.16 18.7372 173.92 18.9005L176.882 19.4971C178.472 19.8238 179.659 20.3494 180.44 21.0738C181.221 21.7982 181.612 22.7499 181.612 23.9289C181.612 25.0014 181.296 25.9424 180.664 26.7521C180.039 27.5617 179.179 28.1938 178.085 28.6484C176.999 29.0958 175.745 29.3195 174.325 29.3195C172.159 29.3195 170.433 28.8686 169.147 27.9666C167.869 27.0575 167.119 25.8217 166.899 24.2592L171.363 24.0248C171.498 24.6853 171.825 25.1896 172.343 25.5376C172.862 25.8785 173.526 26.049 174.335 26.049C175.131 26.049 175.77 25.8963 176.253 25.5909C176.743 25.2784 176.992 24.8771 176.999 24.387C176.992 23.9751 176.818 23.6377 176.477 23.3749C176.136 23.1051 175.61 22.8991 174.9 22.757L172.066 22.1924C170.468 21.8728 169.279 21.3188 168.497 20.5305C167.723 19.7421 167.336 18.7372 167.336 17.5156C167.336 16.4644 167.62 15.5589 168.188 14.799C168.764 14.039 169.57 13.4531 170.607 13.0411C171.651 12.6292 172.872 12.4232 174.271 12.4232C176.338 12.4232 177.965 12.86 179.151 13.7336C180.344 14.6072 181.04 15.7968 181.239 17.3025Z" fill="white"/>
<mask id="mask0_123_854" style="mask-type:luminance" maskUnits="userSpaceOnUse" x="0" y="1" width="31" height="30">
<path d="M2 3H26.1579C26.1579 3 29 4.42105 29 7.97368C29 11.5263 26.1579 12.9474 26.1579 12.9474H2C2 12.9474 4.84211 11.5263 4.84211 7.97368C4.84211 4.42105 2 3 2 3ZM29 18.6316H4.84211C4.84211 18.6316 2 20.0526 2 23.6053C2 27.1579 4.84211 28.5789 4.84211 28.5789H29C29 28.5789 26.1579 27.1579 26.1579 23.6053C26.1579 20.0526 29 18.6316 29 18.6316Z" fill="white" stroke="white" stroke-width="4" stroke-linecap="round" stroke-linejoin="round"/>
</mask>
<g mask="url(#mask0_123_854)">
<path d="M-1.55273 -1.26318H32.5525V32.8421H-1.55273V-1.26318Z" fill="#505050"/>
</g>
</svg>
